<?xml version="1.0" encoding="UTF-8"?>
<svg width="232" height="50" fill="none" version="1.1" viewBox="0 0 232 50" xmlns="http://www.w3.org/2000/svg"><g transform="translate(-3.2847 5.9892)"><g transform="translate(-28.9)" fill="#fff" stroke-width=".049509"><path d="m51.967-0.9892 9.8912 5.7072-9.8912 5.7071-9.8913-5.7071z"/><path d="m42.076 4.7179 9.8913 5.7072-9.8913 5.7072-9.8912-5.7072z"/><path d="m61.858 4.7179 9.8912 5.7072-9.8912 5.7072-9.8912-5.7072z"/><path d="m61.858 27.572-9.8912 5.7071v-11.439l9.8912-5.7071z"/><path d="m71.75 33.279-9.8912 5.7072v-11.439l9.8912-5.7072z"/><path d="m42.076 27.572 9.8913 5.7071v-11.439l-9.8913-5.7071z"/><path d="m32.185 21.864 9.8912 5.7072v-11.439l-9.8912-5.7071z"/><path d="m32.185 33.304 9.8912 5.7072v-11.439l-9.8912-5.7072z"/><path d="m84.608 28.153v-17.624h7.3862c1.089 0 2.0435 0.19304 2.864 0.57908 0.83784 0.36929 1.4827 0.90639 1.9347 1.6114 0.46888 0.70497 0.70328 1.5442 0.70328 2.5177v0.27695c0 1.1078-0.26752 1.9974-0.80368 2.6688-0.51928 0.65462-1.1558 1.1162-1.9094 1.3848v0.40284c0.63648 0.0336 1.1474 0.25178 1.5326 0.65462 0.3852 0.38609 0.5776 0.94837 0.5776 1.6869v5.8412h-2.7384v-5.4635c0-0.45319-0.1172-0.81406-0.3516-1.0826-0.2344-0.26853-0.61128-0.40284-1.1306-0.40284h-5.3517v6.949zm2.7131-9.4164h4.3719c0.97136 0 1.725-0.24334 2.2612-0.73014 0.5356-0.50355 0.8036-1.1833 0.8036-2.0394v-0.20142c0-0.85603-0.268-1.5274-0.8036-2.0142-0.51936-0.50354-1.273-0.75532-2.2612-0.75532h-4.3719z"/><path d="m105.48 28.505c-1.2562 0-2.3531-0.26014-3.2908-0.7805-0.93816-0.5371-1.6751-1.2841-2.2112-2.2408-0.51928-0.9735-0.77896-2.0981-0.77896-3.3738v-0.30213c0-1.2924 0.25968-2.417 0.77896-3.3738 0.51928-0.9735 1.2394-1.7204 2.1607-2.2408 0.93824-0.5371 2.0183-0.80568 3.2409-0.80568 1.1894 0 2.228 0.26858 3.1153 0.80568 0.90448 0.52035 1.6082 1.2505 2.1107 2.1904 0.50248 0.93999 0.75376 2.0394 0.75376 3.2982v0.98192h-9.5223c0.0336 1.0911 0.39368 1.9638 1.0806 2.6185 0.70328 0.63786 1.5742 0.95674 2.6128 0.95674 0.97128 0 1.7002-0.21818 2.1859-0.65462 0.50248-0.43639 0.88776-0.93994 1.1553-1.5106l2.1355 1.1078c-0.2344 0.47-0.5776 0.96517-1.0297 1.4855-0.43568 0.52035-1.0134 0.95674-1.7339 1.3092-0.72008 0.35248-1.641 0.52872-2.7636 0.52872zm-3.6178-7.8302h6.8591c-0.0672-0.93994-0.40208-1.6701-1.005-2.1904-0.60336-0.5371-1.3902-0.80568-2.362-0.80568-0.97136 0-1.7666 0.26858-2.3868 0.80568-0.60288 0.52034-0.97128 1.2505-1.1054 2.1904z"/><path d="m119.05 28.505c-1.5747 0-2.8808-0.35248-3.9194-1.0574-1.0386-0.70497-1.6751-1.7708-1.9095-3.1975l2.4119-0.57908c0.13408 0.68822 0.36008 1.2337 0.67808 1.6365 0.31848 0.40284 0.71216 0.68822 1.181 0.85603 0.4856 0.16787 1.005 0.25178 1.5578 0.25178 0.82048 0 1.4486-0.15944 1.8843-0.47837 0.452-0.31888 0.678-0.73015 0.678-1.2337 0-0.50355-0.2092-0.87278-0.62808-1.1078-0.4184-0.23498-1.0381-0.42802-1.859-0.57908l-0.85416-0.15107c-0.83728-0.15106-1.5994-0.36923-2.2863-0.65461-0.68648-0.28533-1.231-0.67979-1.633-1.1833s-0.60288-1.1497-0.60288-1.9387c0-1.1749 0.4352-2.0813 1.3062-2.7192 0.87136-0.65462 2.0267-0.98192 3.4674-0.98192 1.3902 0 2.5292 0.31893 3.4169 0.95674 0.90408 0.62106 1.4906 1.4687 1.7587 2.5429l-2.412 0.67978c-0.15088-0.75532-0.46888-1.284-0.95504-1.5862-0.4856-0.31888-1.0885-0.47838-1.8086-0.47838-0.70376 0-1.2562 0.13432-1.6582 0.40284-0.40208 0.25178-0.60288 0.61269-0.60288 1.0826 0 0.50355 0.19232 0.87284 0.5776 1.1078 0.40208 0.23502 0.93824 0.41126 1.6078 0.52873l0.87936 0.15106c0.88768 0.15106 1.7002 0.36091 2.4372 0.62944 0.73688 0.26858 1.315 0.65462 1.7334 1.1582 0.43568 0.50355 0.65328 1.175 0.65328 2.0142 0 1.2421-0.4604 2.2072-1.3818 2.8954-0.92136 0.68822-2.1607 1.0323-3.7181 1.0323z"/><path d="m132.22 28.505c-1.2394 0-2.3452-0.25177-3.3166-0.75532-0.95448-0.5203-1.7082-1.2589-2.2611-2.2156-0.5524-0.95674-0.82888-2.0897-0.82888-3.399v-0.37766c0-1.3092 0.27648-2.4338 0.82888-3.3738 0.55288-0.95674 1.3066-1.6953 2.2611-2.2156 0.97136-0.5203 2.0772-0.7805 3.3166-0.7805s2.3447 0.2602 3.316 0.7805c0.97184 0.52035 1.7339 1.2589 2.2864 2.2156 0.55288 0.93999 0.82936 2.0646 0.82936 3.3738v0.37766c0 1.3092-0.27648 2.4422-0.82936 3.399-0.55248 0.95674-1.3146 1.6953-2.2864 2.2156-0.97128 0.50355-2.0766 0.75532-3.316 0.75532zm0-2.3163c1.139 0 2.0598-0.36086 2.7636-1.0826 0.72008-0.73853 1.0801-1.754 1.0801-3.0465v-0.2266c0-1.2924-0.3516-2.2995-1.0549-3.0213-0.70376-0.73852-1.633-1.1078-2.7888-1.1078-1.1222 0-2.0435 0.36929-2.7636 1.1078-0.70376 0.72177-1.0554 1.7289-1.0554 3.0213v0.2266c0 1.2925 0.35168 2.3079 1.0554 3.0465 0.72008 0.72177 1.6414 1.0826 2.7636 1.0826z"/><path d="m145.62 28.379c-0.93768 0-1.7754-0.20979-2.5123-0.62943-0.73696-0.41959-1.3146-1.0155-1.7334-1.7876-0.41896-0.77208-0.62816-1.6953-0.62816-2.7695v-7.4525h2.5876v7.2763c0 1.0742 0.268 1.8716 0.80416 2.3919 0.53608 0.50355 1.2814 0.75532 2.2359 0.75532 1.0554 0 1.901-0.35248 2.5376-1.0574 0.65328-0.72172 0.97968-1.754 0.97968-3.0968v-6.2692h2.5875v12.412h-2.537v-1.8631h-0.40208c-0.23448 0.50355-0.65336 0.98192-1.2562 1.4351-0.6028 0.43644-1.4906 0.65461-2.6632 0.65461z"/><path d="m155.8 28.153v-12.412h2.5376v1.4603h0.40208c0.2008-0.5203 0.51928-0.89796 0.95456-1.133 0.45248-0.25178 1.0049-0.37766 1.6582-0.37766h1.4822v2.3415h-1.5826c-0.83776 0-1.5242 0.23502-2.0603 0.70497-0.53616 0.4532-0.80368 1.1582-0.80368 2.1149v7.3015z"/><path d="m170.58 28.505c-1.1894 0-2.2696-0.25177-3.2414-0.75532-0.95456-0.50355-1.7166-1.2337-2.2859-2.1904-0.55288-0.95674-0.82936-2.1065-0.82936-3.4493v-0.3273c0-1.3428 0.27648-2.4841 0.82936-3.4241 0.56928-0.95674 1.3314-1.6869 2.2859-2.1904 0.97176-0.5203 2.0519-0.7805 3.2414-0.7805 1.1889 0 2.2022 0.21822 3.0395 0.65462 0.83784 0.43644 1.5074 1.0155 2.0099 1.7372 0.51928 0.72178 0.85464 1.5191 1.005 2.3919l-2.5124 0.52873c-0.0835-0.5539-0.25912-1.0575-0.5272-1.5106-0.268-0.4532-0.64488-0.81406-1.1306-1.0826-0.48568-0.26853-1.0974-0.40284-1.8343-0.40284-0.72008 0-1.3734 0.16786-1.9594 0.50355-0.56976 0.31893-1.0218 0.78892-1.3566 1.4099-0.33536 0.60426-0.50248 1.3428-0.50248 2.2156v0.2266c0 0.87283 0.16712 1.6198 0.50248 2.2408 0.3348 0.62106 0.7868 1.0911 1.3566 1.4099 0.58608 0.31893 1.2394 0.47838 1.9594 0.47838 1.089 0 1.9179-0.27695 2.4871-0.83086 0.56976-0.57066 0.92984-1.2924 1.0806-2.1653l2.5124 0.57908c-0.20128 0.85603-0.56136 1.645-1.0806 2.3667-0.50248 0.72177-1.1721 1.3009-2.0099 1.7372-0.83728 0.41964-1.8506 0.62943-3.0395 0.62943z"/><path d="m184.62 28.505c-1.2562 0-2.3537-0.26014-3.2914-0.7805-0.93816-0.5371-1.675-1.2841-2.2112-2.2408-0.51872-0.9735-0.7784-2.0981-0.7784-3.3738v-0.30213c0-1.2924 0.25968-2.417 0.7784-3.3738 0.51936-0.9735 1.2399-1.7204 2.1608-2.2408 0.93816-0.5371 2.0183-0.80568 3.2408-0.80568 1.1894 0 2.228 0.26858 3.1158 0.80568 0.90408 0.52035 1.6078 1.2505 2.1103 2.1904 0.50248 0.93999 0.75368 2.0394 0.75368 3.2982v0.98192h-9.5218c0.0328 1.0911 0.3932 1.9638 1.0801 2.6185 0.70328 0.63786 1.5742 0.95674 2.6128 0.95674 0.97128 0 1.7003-0.21818 2.1859-0.65462 0.50248-0.43639 0.88776-0.93994 1.1558-1.5106l2.1355 1.1078c-0.23496 0.47-0.57816 0.96517-1.0302 1.4855-0.43576 0.52035-1.0134 0.95674-1.7334 1.3092-0.72056 0.35248-1.6414 0.52872-2.7636 0.52872zm-3.6182-7.8302h6.859c-0.0672-0.93994-0.40208-1.6701-1.005-2.1904-0.6028-0.5371-1.3902-0.80568-2.3615-0.80568-0.97176 0-1.767 0.26858-2.3867 0.80568-0.60336 0.52034-0.97184 1.2505-1.1058 2.1904z"/><path d="m199.51 28.505c-1.3229 0-2.4955-0.23497-3.5173-0.70497-1.0218-0.46994-1.8254-1.1582-2.412-2.0646-0.5692-0.92314-0.85408-2.0394-0.85408-3.3486v-0.62944h2.6884v0.62944c0 1.2421 0.36848 2.1737 1.1054 2.7947 0.75376 0.62106 1.7502 0.93157 2.9896 0.93157 1.2562 0 2.2028-0.26015 2.8393-0.7805 0.63656-0.5371 0.95456-1.2253 0.95456-2.0646 0-0.5539-0.15088-1.0071-0.45208-1.3596-0.30168-0.35248-0.72896-0.62943-1.2814-0.83086-0.55296-0.21817-1.2146-0.41958-1.9847-0.60426l-0.92976-0.2266c-1.1222-0.26852-2.1018-0.59583-2.9397-0.98192-0.82048-0.40284-1.457-0.93156-1.909-1.5862-0.45256-0.65462-0.67856-1.4938-0.67856-2.5178 0-1.0406 0.2512-1.9302 0.75368-2.6688 0.51928-0.73852 1.231-1.3092 2.1355-1.7121s1.9678-0.60426 3.191-0.60426c1.2226 0 2.311 0.20985 3.2661 0.62944 0.97128 0.41964 1.7334 1.0407 2.2858 1.8631 0.55288 0.82248 0.82936 1.8548 0.82936 3.0968v0.90638h-2.6884v-0.90638c0-0.75533-0.15928-1.368-0.47728-1.838-0.30168-0.46995-0.72848-0.81406-1.2814-1.0323-0.5524-0.21817-1.1973-0.3273-1.9342-0.3273-1.0722 0-1.9095 0.22659-2.5124 0.67979-0.58656 0.43644-0.87936 1.0491-0.87936 1.838 0 0.53715 0.12568 0.98192 0.37688 1.3344 0.2676 0.33573 0.6528 0.61268 1.1553 0.83086 0.50248 0.21822 1.1306 0.41126 1.8843 0.57908l0.92976 0.22659c1.139 0.25178 2.1439 0.57909 3.0148 0.98193 0.87096 0.38609 1.5579 0.91481 2.0604 1.5862 0.50248 0.67142 0.75368 1.5358 0.75368 2.5933s-0.268 1.9806-0.80416 2.7695c-0.51928 0.78893-1.2646 1.4099-2.2359 1.8631-0.97128 0.43644-2.1186 0.65461-3.4422 0.65461z"/><path d="m208.42 33.188v-17.448h2.5376v1.7876h0.40208c0.318-0.5539 0.79576-1.049 1.4322-1.4855 0.6528-0.43639 1.5826-0.65462 2.7883-0.65462 1.0386 0 1.9852 0.25178 2.8393 0.75533 0.87096 0.50354 1.5658 1.2337 2.0851 2.1904 0.53608 0.93998 0.80416 2.0814 0.80416 3.4241v0.37766c0 1.3428-0.25968 2.4926-0.77896 3.4493-0.51928 0.93999-1.2142 1.6617-2.085 2.1653-0.87096 0.50355-1.8259 0.75532-2.8646 0.75532-0.8036 0-1.4822-0.1007-2.0346-0.30213-0.55296-0.20142-0.99656-0.45319-1.3319-0.75532-0.3348-0.31888-0.6028-0.64619-0.8036-0.98192h-0.40208v6.7224zm6.4066-6.949c1.139 0 2.0687-0.36086 2.7888-1.0826 0.72008-0.72172 1.0806-1.754 1.0806-3.0968v-0.2266c0-1.326-0.36848-2.3499-1.1058-3.0716-0.72008-0.72172-1.6414-1.0826-2.7636-1.0826-1.1054 0-2.0262 0.36091-2.7636 1.0826-0.72008 0.72177-1.0802 1.7457-1.0802 3.0716v0.2266c0 1.3428 0.36008 2.3751 1.0802 3.0968 0.73736 0.72177 1.6582 1.0826 2.7636 1.0826z"/><path d="m227.85 28.505c-0.88776 0-1.6835-0.15106-2.3868-0.45319-0.68696-0.30213-1.2398-0.7469-1.6582-1.3344-0.40208-0.58746-0.60288-1.3008-0.60288-2.1401 0-0.85603 0.2008-1.561 0.60288-2.1149 0.4184-0.57066 0.97968-0.99867 1.683-1.284 0.72056-0.28533 1.5326-0.42802 2.4372-0.42802h3.7686v-0.80568c0-0.72172-0.2176-1.3008-0.65328-1.7372-0.4352-0.4364-1.1054-0.65462-2.0099-0.65462-0.88776 0-1.5658 0.20984-2.0351 0.62943-0.46888 0.41965-0.7784 0.96518-0.92928 1.6365l-2.412-0.7805c0.2008-0.67137 0.51928-1.2756 0.95456-1.8128 0.45248-0.5539 1.047-0.99867 1.7838-1.3344 0.73688-0.33569 1.6246-0.50355 2.6632-0.50355 1.6078 0 2.8724 0.41126 3.7938 1.2337 0.9208 0.82248 1.3818 1.989 1.3818 3.4997v5.111c0 0.50354 0.2344 0.75532 0.70328 0.75532h1.0554v2.1653h-1.9347c-0.586 0-1.0633-0.15106-1.4318-0.45319-0.3684-0.30214-0.55288-0.71335-0.55288-1.2337v-0.07552h-0.37688c-0.134 0.25178-0.3348 0.54553-0.60288 0.88121-0.268 0.33574-0.66168 0.62944-1.181 0.88122-0.51928 0.23502-1.2058 0.35248-2.0598 0.35248zm0.3768-2.1401c1.0381 0 1.8759-0.2937 2.5124-0.88122 0.63648-0.60426 0.95448-1.4267 0.95448-2.4674v-0.25178h-3.6177c-0.68696 0-1.2394 0.15106-1.6583 0.45319-0.41888 0.28538-0.62808 0.71339-0.62808 1.284 0 0.57071 0.2176 1.0239 0.65336 1.3596 0.4352 0.33574 1.0302 0.50355 1.7838 0.50355z"/><path d="m243.47 28.505c-1.1889 0-2.2695-0.25177-3.2408-0.75532-0.95456-0.50355-1.7166-1.2337-2.2864-2.1904-0.5524-0.95674-0.82888-2.1065-0.82888-3.4493v-0.3273c0-1.3428 0.27648-2.4841 0.82888-3.4241 0.56976-0.95674 1.3318-1.6869 2.2864-2.1904 0.97128-0.5203 2.0519-0.7805 3.2408-0.7805 1.1894 0 2.2028 0.21822 3.0401 0.65462 0.83728 0.43644 1.5074 1.0155 2.0099 1.7372 0.51928 0.72178 0.85408 1.5191 1.005 2.3919l-2.5124 0.52873c-0.0836-0.5539-0.2596-1.0575-0.52768-1.5106-0.26808-0.4532-0.64488-0.81406-1.1306-1.0826-0.48568-0.26853-1.097-0.40284-1.8338-0.40284-0.72008 0-1.3734 0.16786-1.9599 0.50355-0.56928 0.31893-1.0213 0.78892-1.3566 1.4099-0.3348 0.60426-0.5024 1.3428-0.5024 2.2156v0.2266c0 0.87283 0.1676 1.6198 0.5024 2.2408 0.33536 0.62106 0.78736 1.0911 1.3566 1.4099 0.58656 0.31893 1.2398 0.47838 1.9599 0.47838 1.0886 0 1.9179-0.27695 2.4871-0.83086 0.56928-0.57066 0.92984-1.2924 1.0802-2.1653l2.5124 0.57908c-0.2008 0.85603-0.56088 1.645-1.0802 2.3667-0.50248 0.72177-1.1726 1.3009-2.0099 1.7372-0.83728 0.41964-1.8506 0.62943-3.0401 0.62943z"/><path d="m257.51 28.505c-1.2562 0-2.3531-0.26014-3.2913-0.7805-0.93768-0.5371-1.6746-1.2841-2.2107-2.2408-0.51928-0.9735-0.77888-2.0981-0.77888-3.3738v-0.30213c0-1.2924 0.2596-2.417 0.77888-3.3738 0.51936-0.9735 1.2394-1.7204 2.1608-2.2408 0.93768-0.5371 2.0182-0.80568 3.2408-0.80568 1.189 0 2.2275 0.26858 3.1153 0.80568 0.90456 0.52035 1.6078 1.2505 2.1103 2.1904 0.50248 0.93999 0.75368 2.0394 0.75368 3.2982v0.98192h-9.5218c0.0336 1.0911 0.39368 1.9638 1.0806 2.6185 0.70328 0.63786 1.5742 0.95674 2.6128 0.95674 0.97128 0 1.6998-0.21818 2.1854-0.65462 0.50248-0.43639 0.88776-0.93994 1.1558-1.5106l2.1355 1.1078c-0.23448 0.47-0.57768 0.96517-1.0302 1.4855-0.4352 0.52035-1.0134 0.95674-1.7334 1.3092-0.72008 0.35248-1.6414 0.52872-2.7636 0.52872zm-3.6177-7.8302h6.8586c-0.0664-0.93994-0.4016-1.6701-1.005-2.1904-0.60288-0.5371-1.3902-0.80568-2.3615-0.80568-0.97128 0-1.767 0.26858-2.3867 0.80568-0.60288 0.52034-0.97136 1.2505-1.1054 2.1904z"/></g></g></svg>
