<?xml version="1.0" encoding="UTF-8"?>
<svg width="512" height="512" fill="none" version="1.1" viewBox="0 0 512 512" xmlns="http://www.w3.org/2000/svg"><g transform="translate(-3.2847 5.9892)"><g transform="matrix(2.1626 0 0 2.1626 -16.319 32.897)"><g transform="matrix(2.0952 0 0 2.0952 12.939 44.731)" fill="#000" stroke-width=".097208"><path d="m54.648-12.703 19.421 11.206-19.421 11.206-19.421-11.206z"/><path d="m35.227-1.4973 19.421 11.206-19.421 11.206-19.421-11.206z"/><path d="m74.069-1.4973 19.421 11.206-19.421 11.206-19.421-11.206z"/><path d="m74.069 43.374-19.421 11.206v-22.46l19.421-11.206z"/><path d="m93.49 54.58-19.421 11.206v-22.46l19.421-11.206z"/><path d="m35.227 43.374 19.421 11.206v-22.46l-19.421-11.206z"/><path d="m15.806 32.169 19.421 11.206v-22.46l-19.421-11.206z"/><path d="m15.806 54.629 19.421 11.206v-22.46l-19.421-11.206z"/></g></g></g></svg>
